<svg version="1.2" xmlns="http://www.w3.org/2000/svg" viewBox="0 0 1000 1000" width="1000" height="1000">
	<title>StorePOS</title>
	<style>
		.s0 { fill: #003049 } 
		.s1 { fill: #6e8387 } 
		.s2 { fill: #fcfcfc } 
	</style>
	<g id="OBJECTS">
		<g id="Folder 2">
			<path id="&lt;Path&gt; copy 2" class="s0" d="m743.2 611.9c0-29.8-9.4-59.4-27.9-85.9-47.4-67.6-135.8-134.9-172-161.1-0.8-0.5-1.4-1-2.1-1.5 4.5-7.3 3.1-17.8-2.5-24.7q0.2-0.4 0.3-0.9c0.9-4-0.5-8.3-3.2-11.5-1.8-2.1-4-3.7-6.5-5q0.6-1.2 1.1-2.5c0.7-1.6 1.3-3.1 2-4.6 5.4-11.1 15.1-19.4 24.6-27.2q2.6-2.1 5.3-4.3 0.6-0.5 1.2-1 2.7-2.2 5.3-4.6 0.5-0.4 1-0.9 2.7-2.4 5.1-5 0.3-0.4 0.7-0.7c1.7-1.9 3.3-3.7 4.7-5.7q0-0.1 0-0.1 1.4-1.8 2.6-3.7c6.4-10.5 8.5-24.6 1.9-35-3.6-9.6-19.8-9.8-29.7-0.9-9.8 9-14.6 14.5-49.8-10.4-35.2-25-41.1-4.3-61.2 10.5-20.1 14.8-30.4-18.5-34.5 1.9-0.4 1.7-0.4 3.3-0.4 4.9-0.2-0.6-0.1-1.2-0.1-1.8-2.3 11.5 1.4 23.4 8.3 33 7.5 10.5 18.1 18.4 28.4 26.2 10.6 7.9 21 16.2 29.1 26.6 1.8 2.3 3.4 4.6 5 7q0.5 1 1.1 1.9-0.2 0.1-0.4 0.2-0.1 0.1-0.2 0.2-1.1 0.7-2.1 1.5-0.3 0.2-0.5 0.4-0.7 0.6-1.4 1.3-0.2 0.2-0.4 0.5-0.8 0.9-1.4 1.8-0.1 0.1-0.1 0.3-0.5 0.8-0.9 1.7-0.1 0.4-0.2 0.7-0.3 0.8-0.4 1.8-0.1 0.2-0.1 0.4-0.1 1.2-0.1 2.4 0.1 0.3 0.1 0.6 0.1 1 0.4 2.1 0.1 0.4 0.2 0.7c0.3 0.9 0.6 1.9 1.1 2.9q0.3 0.6 0.7 1.2-0.6 0.9-1.2 1.8-0.3 0.3-0.5 0.7-1.1 1.7-1.9 3.5-0.2 0.5-0.4 1c-0.5 1.3-1 2.6-1.3 3.9-0.3 1.8-0.1 3.5 0.4 5.1q0 0.1-0.1 0.1c-0.4 0.3-0.8 0.7-1.2 1-0.5 0.4-0.9 0.7-1.5 1.2-0.4 0.4-1 0.8-1.5 1.3-0.6 0.5-1.1 0.9-1.7 1.4q-0.9 0.8-1.9 1.6c-0.7 0.6-1.3 1.2-2 1.8q-1.1 0.9-2.2 1.8-1.1 1-2.3 2-1.2 1.1-2.5 2.2c-0.4 0.4-0.8 0.7-1.2 1.1q-5.3 4.7-11.7 10.5 0.1-0.1 0.1-0.1c-0.3 0.3-0.7 0.6-1 0.9q-3.5 3.2-7.1 6.7c-0.5 0.4-0.9 0.8-1.3 1.2q-4.3 4-8.8 8.4-1.1 1.1-2.3 2.2-3.6 3.6-7.4 7.4-1.2 1.2-2.4 2.4-4.9 4.8-9.8 10-0.7 0.8-1.5 1.6-4.2 4.4-8.6 9.1-1.4 1.5-2.8 3.1-4.5 4.9-9 10.1-0.7 0.7-1.3 1.4-5.1 5.8-10.1 11.8-1.3 1.6-2.7 3.2-4 4.8-8 9.8-1.2 1.6-2.5 3.1-4.9 6.4-9.8 12.9-0.9 1.2-1.8 2.4-4 5.5-7.9 11-1.3 1.9-2.6 3.8-4.3 6.3-8.4 12.8-0.4 0.5-0.7 1-4.4 6.9-8.5 14-1.1 1.9-2.2 3.8-3.2 5.7-6.2 11.4-0.9 1.7-1.8 3.4-3.6 7.1-6.9 14.4c-0.5 1-0.9 2-1.3 3q-2.6 5.9-4.9 11.9-0.8 2.1-1.6 4.1c-1.8 4.9-3.5 9.9-5 14.8-11.9 40.1 0.5 78.1 27.6 109.5 57.8-6.1 176.4-20.4 219.1-38.2 57.4-23.8 124.7-36.4 124.7-36.4-86.9 51.5-187.8 94.3-303.4 110 64.9 43.7 161.6 62.7 241.4 34.1 5.7-2 11.1-4.1 16.4-6.3q2.2-1 4.4-1.9 6.2-2.7 12.1-5.6c1.2-0.5 2.4-1.1 3.5-1.7q7.3-3.6 14.1-7.5c0.9-0.6 1.8-1.1 2.8-1.7q5.4-3.2 10.6-6.6 1.8-1.2 3.6-2.4 5.7-3.9 11-7.9c0.3-0.3 0.7-0.5 1-0.8 3.8-3 7.5-6 11-9.2q1.3-1.2 2.7-2.4 4.1-3.7 7.9-7.6 1.1-1.2 2.2-2.3 4.7-4.9 8.9-10c0.4-0.4 0.7-0.8 1-1.3q3.7-4.5 7-9.1 0.9-1.3 1.8-2.7 3.2-4.7 6.1-9.5 0.3-0.6 0.7-1.1 3.2-5.5 5.8-11.1 0.5-1.1 1-2.2 2.2-4.6 4-9.3 0.4-1.2 0.9-2.4 4.1-11.3 6.3-22.9 0.2-1.3 0.4-2.5 0.9-5.1 1.4-10.2 0.1-0.7 0.2-1.4 0.5-5.9 0.5-11.8 0-0.3 0-0.5 0 0.1 0 0.2z"/>
			<path id="&lt;Path&gt; copy" class="s1" d="m794.3 425.4c7.5 5.7 12.8 12.4 15.4 20.3 18.9 57.2-107.7 150.6-282.9 208.6-175.2 57.9-332.6 58.5-351.5 1.2-2.6-7.9-2.4-16.4 0.3-25.5-13.7 20.1-18.9 38.9-13.5 55.2 20.7 62.7 188.8 63.4 375.5 1.7 186.6-61.7 321.1-162.6 300.4-225.3-5.4-16.2-20.8-28.3-43.7-36.2z"/>
			<path id="&lt;Compound Path&gt; copy" class="s2" d="m448.6 619.8l-7.8 39.5-24.1-6.1 13.4-41.5q-4.6-3.5-7.6-8.8-3.1-5.3-5.3-12.5l-5 18.3-20.1-7.9 17.7-53.6 17.3 5.3q-0.6 6.7-0.2 14 0.5 7.4 2.8 14 2.4 6.6 7 11.6 4.6 5.1 12.4 7 12.4 3.2 18.6-0.7 6.2-3.9 9.1-15.3 1.6-6.4 0.6-11.3-1.1-4.9-3.9-8.8-2.9-3.9-7.4-7.2-4.4-3.4-9.4-6.8-8.9-5.9-16.8-11.3-7.8-5.4-13.1-11.9-5.2-6.4-7.1-14.7-1.8-8.3 1.2-20.2 4.7-18.4 17-25.9 12.3-7.5 30.2-4.7l7.8-40.7 24.1 6.1-13.3 41.2q5.5 3.6 8.4 9 2.9 5.5 5.4 13.7l5.3-19.5 20.7 5.6-18 59.8-18.6-5.3q0.7-6.9 0.7-14.5 0-7.6-1.9-14.2-2-6.7-6.5-11.9-4.5-5.1-12.7-7.2-10.7-2.7-17.2 1.3-6.6 4-9.1 13.8-1.7 7-0.5 11.7 1.3 4.6 4.5 8.3 3.2 3.6 7.9 6.7 4.7 3.1 10 6.7 8.1 5.3 15.3 11 7.1 5.7 11.9 12.4 4.8 6.6 6.6 14.9 1.8 8.3-0.9 18.7-4.8 19-17.1 27.6-12.3 8.7-32.3 4.3z"/>
		</g>
	</g>
</svg>